# Blender v3.6.0 OBJ File: ''
# www.blender.org
mtllib sol.mtl
o Moon_Sphere.001
v 0.540656 -0.060728 0.843351
v 0.004416 0.901615 0.784025
v 0.004757 0.710227 0.818062
v 0.351349 1.604124 0.907863
v 0.163764 0.271910 0.896800
v 0.272264 0.133606 0.975721
v 0.179062 1.409978 0.937355
v 0.045839 1.157677 0.883163
v 0.078259 0.438978 0.800073
v 0.437529 0.052113 0.621644
v 0.945701 -0.166747 0.819488
v 0.099319 0.652255 0.510828
v 0.560843 1.702663 0.694199
v 0.324473 1.516834 0.622526
v 0.152203 1.285771 0.627752
v 0.091159 0.972722 0.508375
v 0.200088 0.443930 0.446749
v 0.329427 0.160105 0.574130
v 0.284549 1.004768 0.236428
v 0.829473 1.799592 0.712851
v 0.681885 -0.112056 0.769806
v 0.245952 0.728532 0.265136
v 0.513321 1.590492 0.481402
v 0.279929 1.270802 0.366610
v 0.684493 -0.017058 0.487035
v 0.365716 0.379037 0.286412
v 0.724417 1.689122 0.478408
v 0.410756 0.586474 0.147203
v 0.480386 1.207358 0.144820
v 0.591770 0.153888 0.296637
v 0.442491 0.818239 0.086509
v 0.589297 0.429320 0.098422
v 0.868349 1.576586 0.257980
v 0.897761 -0.126385 0.628019
v 0.664351 0.620330 0.000780
v 0.766230 0.188068 0.187585
v 0.590123 1.455588 0.247257
v 0.619424 0.900207 -0.004866
v 0.862398 0.666299 -0.060685
v 0.840432 0.345479 0.057912
v 0.786568 1.260875 0.037510
v 0.848234 1.056989 -0.044655
v 0.992656 1.773172 0.567096
v 1.083723 1.242955 0.007550
v 1.054022 0.876196 -0.080799
v 1.030632 1.558404 0.219074
v 1.061360 0.142512 0.191955
v 0.945186 0.001779 0.355124
v 1.087270 0.529964 -0.031658
v 1.364924 1.015455 0.002283
v 1.146226 -0.119067 0.618687
v 1.418299 0.576590 0.043773
v 1.178815 0.366820 0.048515
v 1.295663 1.321730 0.094966
v 1.294958 0.754909 -0.035092
v 1.254110 1.659883 0.412268
v 1.351130 1.460552 0.224849
v 1.352662 0.059623 0.373097
v 1.607249 1.238523 0.227893
v 1.579385 1.448540 0.376299
v 1.598239 0.925652 0.120123
v 1.368911 0.219825 0.209493
v 1.468644 1.633466 0.544618
v 1.586271 0.347452 0.254836
v 1.375207 -0.013586 0.526193
v 1.834350 0.996231 0.381648
v 1.622862 0.702469 0.145523
v 1.146146 -0.161881 0.896464
v 1.241463 1.764811 0.640648
v 1.374871 -0.072942 0.687306
v 1.783527 0.284579 0.600778
v 1.810455 0.773883 0.333420
v 1.796030 1.271023 0.489936
v 1.795580 0.560410 0.362281
v 1.621134 0.112347 0.590704
v 1.937117 0.752944 0.566126
v 1.719595 1.508532 0.721736
v 1.494864 -0.037569 0.818408
v 1.065688 1.830929 0.861809
v 1.897954 1.214842 0.674215
v 1.505083 1.687587 0.763832
v 1.983879 0.965145 0.751567
v 1.946804 0.547403 0.733944
v 1.676512 0.082774 0.965085
v 1.875721 0.336079 0.841691
v 1.992726 0.906426 1.119322
v 1.999059 0.779106 0.820075
v 1.992903 0.768899 1.085161
v 1.448553 -0.053134 1.086417
v 1.265462 -0.137661 0.988946
v 1.274138 1.795185 0.882689
v 1.646154 1.600235 0.943943
v 1.918523 1.240875 0.910271
v 1.934511 0.463983 0.994527
v 1.756681 1.488158 1.032076
v 1.901400 1.228896 1.127500
v 1.569375 1.615531 1.197616
v 1.859569 0.571431 1.389184
v 1.856986 0.350281 1.161217
v 1.811752 1.166548 1.423391
v 1.079245 -0.156171 1.086369
v 1.339882 1.771803 1.039643
v 1.066503 1.818065 1.097116
v 1.704178 1.416248 1.348267
v 1.820747 0.890688 1.508218
v 1.237303 -0.093196 1.235242
v 1.599272 0.103295 1.284063
v 1.385342 0.010600 1.359870
v 1.651680 0.502238 1.618949
v 1.569082 1.275487 1.627189
v 1.723386 0.744735 1.615966
v 1.629308 0.240119 1.445844
v 1.347591 0.195521 1.626541
v 1.277756 1.735143 1.271034
v 1.567274 1.008068 1.739729
v 0.953514 -0.169149 0.966742
v 1.449567 0.416949 1.727095
v 1.443688 0.688958 1.819118
v 1.375474 1.584249 1.482237
v 1.337322 1.356324 1.715919
v 1.223707 0.032706 1.493992
v 1.115654 1.541445 1.628135
v 1.167904 0.432679 1.834666
v 1.311199 0.856478 1.882117
v 0.973287 1.333712 1.801401
v 1.210997 1.070867 1.881085
v 1.049852 -0.103958 1.291536
v 0.989889 0.688853 1.924968
v 0.955808 0.342271 1.803946
v 0.985400 0.128731 1.650952
v 1.014350 -0.000086 1.491290
v 0.896495 1.049679 1.905184
v 0.749656 0.548409 1.856829
v 0.883855 1.825407 0.989219
v 0.726203 -0.065464 1.300659
v 0.825933 1.498450 1.658763
v 0.977277 1.721174 1.397612
v 0.623573 0.348833 1.729702
v 0.603608 1.056666 1.827494
v 0.590052 0.761186 1.844655
v 0.606808 1.293267 1.728582
v 0.717698 0.069195 1.518293
v 0.519401 1.466160 1.537626
v 0.354675 0.866123 1.696200
v 0.332571 0.328002 1.486954
v 0.498846 0.161338 1.482434
v 0.303211 1.196341 1.558910
v 0.784593 1.777217 1.192017
v 0.660219 1.634551 1.431072
v 0.264941 1.418841 1.295584
v 0.324305 0.569726 1.627931
v 0.788658 -0.143949 1.068583
v 0.555871 1.714136 1.109901
v 0.186822 0.515234 1.427192
v 0.167937 0.827511 1.493514
v 0.440028 1.580266 1.293750
v 0.202639 0.303015 1.234955
v 0.420081 0.085679 1.271899
v 0.076414 0.942404 1.312263
v 0.059122 0.542366 1.154353
v 0.444069 -0.000251 1.052223
v 0.656635 1.775681 0.883199
v 0.008338 0.859799 1.085963
v 0.113451 1.224782 1.206583
vt 0.275611 0.189560
vt 0.249632 0.260793
vt 0.214788 0.155113
vt 0.242526 0.690276
vt 0.186424 0.644406
vt 0.232314 0.603950
vt 0.259186 0.017759
vt 0.337586 0.083755
vt 0.073909 0.041003
vt 0.237828 0.769825
vt 0.174519 0.730142
vt 0.168788 0.111703
vt 0.169414 0.547217
vt 0.216682 0.521035
vt 0.223139 0.453528
vt 0.171089 0.439707
vt 0.217300 0.374287
vt 0.154208 0.367402
vt 0.163253 0.279081
vt 0.320476 0.952550
vt 0.092253 0.905783
vt 0.220515 0.884147
vt 0.135828 0.640970
vt 0.116839 0.545917
vt 0.124971 0.467943
vt 0.159869 0.828312
vt 0.120994 0.770221
vt 0.113133 0.349357
vt 0.076791 0.823072
vt 0.085679 0.265041
vt 0.159707 0.216543
vt 0.087118 0.176681
vt 0.076559 0.706098
vt 0.083640 0.493644
vt 0.091604 0.419462
vt 0.062047 0.366282
vt 0.081879 0.621002
vt 0.036736 0.276932
vt 0.009737 0.876621
vt 0.015765 0.190823
vt 0.042577 0.103494
vt 0.024282 0.761336
vt 0.028286 0.639645
vt 0.013528 0.567950
vt 0.050716 0.517555
vt 0.043439 0.432457
vt 0.018916 0.342341
vt 0.010954 0.446439
vt -0.001320 0.249920
vt -0.003487 0.384211
vt 0.007680 0.714289
vt -0.003487 0.666034
vt 0.997498 0.586233
vt 0.976765 0.628832
vt 0.981846 0.515247
vt 0.944357 0.475635
vt 0.977799 0.402063
vt 0.972281 0.744632
vt 0.939343 0.656977
vt 0.989027 0.173270
vt 0.979254 0.260128
vt 0.904004 0.227960
vt 0.930785 0.558855
vt 0.994891 0.096787
vt 0.913993 0.109179
vt 0.951819 0.023189
vt 0.958431 0.344138
vt 0.917890 0.294264
vt 0.919227 0.804349
vt 0.915061 0.712642
vt 0.887562 0.528121
vt 0.922358 0.416631
vt 0.880241 0.624117
vt 0.975313 0.875014
vt 0.824394 0.960119
vt 0.876978 0.872507
vt 0.872154 0.348450
vt 0.874043 0.179253
vt 0.775992 0.043671
vt 0.851048 0.789089
vt 0.882781 0.457754
vt 0.838438 0.407729
vt 0.860861 0.708472
vt 0.833537 0.546438
vt 0.840256 0.479423
vt 0.821165 0.242102
vt 0.804660 0.314064
vt 0.824512 0.641551
vt 0.760711 0.905280
vt 0.786311 0.725375
vt 0.829370 0.143574
vt 0.789276 0.822048
vt 0.785515 0.624118
vt 0.769459 0.539412
vt 0.773401 0.410664
vt 0.758167 0.330751
vt 0.799120 0.472479
vt 0.757598 0.478377
vt 0.703340 0.090672
vt 0.770335 0.165538
vt 0.729584 0.232904
vt 0.742774 0.630361
vt 0.728540 0.379064
vt 0.712791 0.718320
vt 0.703453 0.534869
vt 0.680535 0.878385
vt 0.715863 0.476054
vt 0.685598 0.155751
vt 0.692040 0.340527
vt 0.702884 0.625077
vt 0.387709 0.022076
vt 0.736816 0.775072
vt 0.667328 0.779386
vt 0.653726 0.693502
vt 0.660750 0.416606
vt 0.652752 0.605644
vt 0.644069 0.518831
vt 0.545913 0.932586
vt 0.597129 0.849076
vt 0.626516 0.305261
vt 0.618609 0.468003
vt 0.609228 0.392171
vt 0.584820 0.761240
vt 0.595011 0.639940
vt 0.603469 0.192481
vt 0.591813 0.124827
vt 0.652876 0.244051
vt 0.586365 0.552709
vt 0.563965 0.281885
vt 0.563569 0.453437
vt 0.563678 0.060336
vt 0.552414 0.673765
vt 0.572380 0.363659
vt 0.551183 0.205587
vt 0.524959 0.578275
vt 0.509337 0.121893
vt 0.539787 0.505584
vt 0.484962 0.259678
vt 0.519728 0.369949
vt 0.489104 0.439156
vt 0.485806 0.663079
vt 0.473808 0.569167
vt 0.515456 0.745495
vt 0.451830 0.731929
vt 0.482334 0.334951
vt 0.485119 0.837079
vt 0.419957 0.335340
vt 0.492214 0.189671
vt 0.392801 0.153768
vt 0.422094 0.480487
vt 0.417877 0.224872
vt 0.417915 0.648357
vt 0.446824 0.405389
vt 0.374184 0.265090
vt 0.422798 0.565150
vt 0.381405 0.504995
vt 0.369387 0.419654
vt 0.351711 0.331131
vt 0.383995 0.716438
vt 0.359004 0.611258
vt 0.396291 0.788643
vt 0.330660 0.762092
vt 0.383480 0.883132
vt 0.297591 0.837994
vt 0.327149 0.395452
vt 0.314777 0.699762
vt 0.335321 0.496569
vt 0.325904 0.232054
vt 0.302455 0.535431
vt 0.275302 0.407029
vt 0.264502 0.506740
vt 0.290893 0.626418
vt 0.301730 0.319614
vt 0.233872 0.311753
vt 0.092889 0.969047
vt -0.002516 0.531677
vt 0.999124 0.451331
vt 0.999124 0.345946
vt 0.999124 0.634259
vt 0.995876 0.779613
vt 0.997380 0.946540
vn -0.5349 -0.8347 0.1306
vn -0.7191 -0.6935 0.0436
vn -0.4720 -0.8787 -0.0711
vn -0.8152 0.5789 0.0160
vn -0.8485 0.4451 -0.2862
vn -0.9467 0.3198 -0.0386
vn -0.0504 -0.9975 0.0495
vn -0.2211 -0.9648 0.1425
vn -0.0597 -0.9929 -0.1029
vn -0.6428 0.7661 -0.0036
vn -0.6730 0.6759 -0.3006
vn -0.3100 -0.9377 -0.1568
vn -0.9000 0.1427 -0.4118
vn -0.9853 0.0846 -0.1484
vn -0.9856 -0.1346 -0.1025
vn -0.9002 -0.1669 -0.4023
vn -0.9112 -0.3896 -0.1337
vn -0.7948 -0.3906 -0.4645
vn -0.6801 -0.6466 -0.3455
vn -0.1243 0.9905 0.0595
vn -0.1733 0.9631 -0.2059
vn -0.3476 0.9370 -0.0348
vn -0.7099 0.4446 -0.5463
vn -0.7125 0.1680 -0.6812
vn -0.7577 -0.1053 -0.6440
vn -0.4438 0.8669 -0.2272
vn -0.4920 0.7432 -0.4533
vn -0.6286 -0.4526 -0.6325
vn -0.2678 0.8522 -0.4495
vn -0.4148 -0.6712 -0.6144
vn -0.5448 -0.7872 -0.2891
vn -0.3163 -0.8415 -0.4380
vn -0.4078 0.6217 -0.6687
vn -0.5534 -0.0013 -0.8329
vn -0.5911 -0.2463 -0.7681
vn -0.4059 -0.4097 -0.8170
vn -0.5039 0.3619 -0.7843
vn -0.2246 -0.6452 -0.7302
vn -0.0023 0.9291 -0.3697
vn -0.0472 -0.8271 -0.5600
vn -0.1058 -0.9450 -0.3096
vn -0.1567 0.7386 -0.6556
vn -0.2200 0.4385 -0.8714
vn -0.1570 0.2087 -0.9653
vn -0.3685 0.0868 -0.9255
vn -0.3377 -0.2094 -0.9177
vn -0.1468 -0.4737 -0.8683
vn -0.1344 -0.1575 -0.9783
vn 0.0628 -0.6828 -0.7279
vn 0.0834 -0.2899 -0.9534
vn 0.0399 0.7122 -0.7009
vn 0.0796 0.4043 -0.9112
vn 0.0541 0.0530 -0.9971
vn 0.2984 -0.0747 -0.9515
vn 0.3010 0.4786 -0.8248
vn 0.3419 -0.7645 -0.5464
vn 0.3596 0.1914 -0.9133
vn 0.1421 -0.9377 -0.3171
vn 0.1806 -0.4647 -0.8669
vn 0.3607 -0.5937 -0.7194
vn 0.2515 0.8193 -0.5154
vn 0.3534 0.6381 -0.6840
vn 0.5944 0.0991 -0.7980
vn 0.4197 -0.2571 -0.8705
vn 0.5986 0.3879 -0.7009
vn 0.0655 0.9953 -0.0712
vn 0.2413 0.9300 -0.2771
vn 0.5862 -0.4784 -0.6539
vn 0.3774 -0.8391 -0.3918
vn 0.1479 -0.9877 -0.0515
vn 0.4731 0.7911 -0.3878
vn 0.6111 -0.1319 -0.7805
vn 0.7891 -0.2846 -0.5444
vn 0.5716 0.6249 -0.5318
vn 0.8267 0.1712 -0.5359
vn 0.8007 -0.0432 -0.5975
vn 0.6203 -0.7098 -0.3338
vn 0.7756 -0.5383 -0.3296
vn 0.7840 0.4414 -0.4364
vn 0.2711 0.9612 -0.0519
vn 0.7208 0.6597 -0.2127
vn 0.3725 -0.9018 -0.2191
vn 0.4953 0.8553 -0.1521
vn 0.8918 0.3783 -0.2480
vn 0.9740 0.1471 -0.1725
vn 0.9380 -0.2808 -0.2034
vn 0.8535 -0.5140 -0.0855
vn 0.9293 -0.0754 -0.3616
vn 0.9950 -0.0580 -0.0814
vn 0.2796 -0.9583 0.0590
vn 0.5014 -0.8594 -0.1003
vn 0.6814 -0.7311 0.0353
vn 0.9132 0.4073 -0.0157
vn 0.9410 -0.3265 0.0892
vn 0.7657 0.6337 0.1103
vn 0.9746 0.0915 0.2046
vn 0.3517 0.9291 0.1148
vn 0.9808 -0.1121 0.1597
vn 0.4526 -0.8765 0.1644
vn 0.8423 -0.4780 0.2491
vn 0.8949 0.3912 0.2148
vn 0.6201 0.7842 0.0215
vn 0.5554 0.7842 0.2767
vn 0.6906 0.5845 0.4260
vn 0.8577 -0.2546 0.4467
vn 0.8072 0.3200 0.4960
vn 0.8227 0.0695 0.5642
vn 0.0697 0.9802 0.1855
vn 0.2681 0.8948 0.3569
vn 0.6291 -0.5724 0.5258
vn 0.7041 -0.0876 0.7046
vn 0.6517 -0.3285 0.6836
vn 0.3777 0.7425 0.5531
vn 0.5676 0.4425 0.6943
vn 0.3911 -0.8105 0.4361
vn 0.2449 -0.9181 0.3118
vn 0.6023 -0.7203 0.3440
vn 0.5617 0.1807 0.8074
vn 0.3414 -0.6277 0.6996
vn 0.4359 -0.1449 0.8883
vn 0.0674 -0.9827 0.1722
vn 0.3323 0.5085 0.7944
vn 0.4415 -0.4130 0.7966
vn 0.2232 -0.7931 0.5667
vn 0.2123 0.2449 0.9460
vn 0.0344 -0.9298 0.3664
vn 0.2907 0.0143 0.9567
vn -0.0172 -0.6795 0.7334
vn 0.1775 -0.3875 0.9046
vn -0.0017 -0.1256 0.9921
vn -0.0239 0.4874 0.8729
vn -0.1043 0.2018 0.9739
vn 0.1158 0.7149 0.6896
vn -0.1789 0.6714 0.7192
vn -0.0499 -0.4877 0.8716
vn -0.0132 0.8789 0.4769
vn -0.3790 -0.4766 0.7932
vn -0.0008 -0.8357 0.5492
vn -0.2768 -0.8863 0.3712
vn -0.3988 -0.0805 0.9135
vn -0.2788 -0.7487 0.6014
vn -0.3879 0.4589 0.7994
vn -0.2520 -0.2757 0.9276
vn -0.4920 -0.6672 0.5592
vn -0.3941 0.2264 0.8908
vn -0.6411 0.0486 0.7659
vn -0.6497 -0.2567 0.7156
vn -0.6537 -0.5071 0.5617
vn -0.4870 0.6199 0.6153
vn -0.6922 0.3524 0.6299
vn -0.3253 0.8010 0.5025
vn -0.5619 0.7491 0.3507
vn -0.2130 0.9394 0.2685
vn -0.4505 0.8735 0.1844
vn -0.8241 -0.2941 0.4841
vn -0.7243 0.5872 0.3614
vn -0.8305 -0.0023 0.5570
vn -0.5765 -0.7389 0.3488
vn -0.9159 0.1090 0.3863
vn -0.9345 -0.2748 0.2264
vn -0.9860 0.0316 0.1638
vn -0.8840 0.3757 0.2783
vn -0.7919 -0.5327 0.2987
vn -0.8340 -0.5508 -0.0333
s 1
f 161/1/1 6/2/2 1/3/3
f 7/4/4 15/5/5 8/6/6
f 116/7/7 152/8/8 11/9/9
f 4/10/10 14/11/11 7/4/4
f 21/12/12 11/9/9 152/8/8
f 8/6/6 15/5/5 16/13/13
f 8/6/6 16/13/13 2/14/14
f 3/15/15 12/16/16 9/17/17
f 2/14/14 16/13/13 12/16/16
f 9/17/17 12/16/16 17/18/18
f 9/17/17 17/18/18 18/19/19
f 134/20/20 20/21/21 162/22/22
f 15/5/5 24/23/23 16/13/13
f 16/13/13 24/23/23 19/24/24
f 16/13/13 19/24/24 22/25/25
f 13/26/26 23/27/27 14/11/11
f 17/18/18 26/28/28 18/19/19
f 13/26/26 20/21/21 27/29/29
f 13/26/26 27/29/29 23/27/27
f 18/19/19 30/30/30 10/31/31
f 10/31/31 30/30/30 25/32/32
f 23/27/27 37/33/33 24/23/23
f 19/24/24 31/34/34 22/25/25
f 22/25/25 31/34/34 28/35/35
f 26/28/28 32/36/36 30/30/30
f 19/24/24 29/37/37 31/34/34
f 26/28/28 28/35/35 32/36/36
f 30/30/30 32/36/36 36/38/38
f 27/29/29 20/21/21 43/39/39
f 30/30/30 36/38/38 48/40/40
f 30/30/30 48/40/40 25/32/32
f 25/32/32 48/40/40 34/41/41
f 37/33/33 33/42/42 41/43/43
f 41/43/43 42/44/44 38/45/45
f 27/29/29 43/39/39 33/42/42
f 32/36/36 35/46/46 40/47/47
f 38/45/45 39/48/48 35/46/46
f 38/45/45 42/44/44 39/48/48
f 36/38/38 40/47/47 47/49/49
f 39/48/48 49/50/50 40/47/47
f 46/51/51 44/52/52 41/43/43
f 42/53/44 44/54/52 45/55/53
f 45/55/53 55/56/54 49/57/50
f 44/54/52 46/58/51 54/59/55
f 48/60/40 47/61/49 58/62/56
f 45/55/53 50/63/57 55/56/54
f 34/64/41 51/65/58 11/66/9
f 53/67/59 62/68/60 47/61/49
f 47/61/49 62/68/60 58/62/56
f 58/62/56 51/65/58 48/60/40
f 46/58/51 56/69/61 57/70/62
f 55/56/54 61/71/63 52/72/64
f 57/70/62 59/73/65 54/59/55
f 43/74/39 79/75/66 69/76/67
f 52/72/64 64/77/68 62/68/60
f 54/59/55 59/73/65 50/63/57
f 50/63/57 59/73/65 61/71/63
f 51/65/58 58/62/56 65/78/69
f 11/66/9 51/65/58 68/79/70
f 69/76/67 63/80/71 56/69/61
f 67/81/72 74/82/73 64/77/68
f 56/69/61 63/80/71 60/83/74
f 61/71/63 59/73/65 66/84/75
f 67/81/72 72/85/76 74/82/73
f 64/77/68 75/86/77 58/62/56
f 74/82/73 71/87/78 64/77/68
f 59/73/65 73/88/79 66/84/75
f 69/76/67 79/75/66 91/89/80
f 63/80/71 77/90/81 60/83/74
f 51/65/58 70/91/82 68/79/70
f 69/76/67 91/89/80 81/92/83
f 81/92/83 77/90/81 63/80/71
f 66/84/75 80/93/84 82/94/85
f 71/87/78 83/95/86 85/96/87
f 76/97/88 82/94/85 87/98/89
f 70/91/82 90/99/90 68/79/70
f 78/100/91 90/99/90 70/91/82
f 76/97/88 87/98/89 83/95/86
f 75/86/77 84/101/92 78/100/91
f 80/93/84 77/90/81 93/102/93
f 85/96/87 83/95/86 94/103/94
f 77/90/81 95/104/95 93/102/93
f 93/102/93 86/105/96 82/94/85
f 91/89/80 102/106/97 81/92/83
f 87/98/89 94/103/94 83/95/86
f 86/105/96 88/107/98 82/94/85
f 89/108/99 90/99/90 78/100/91
f 85/96/87 99/109/100 84/101/92
f 95/104/95 96/110/101 93/102/93
f 94/103/94 88/107/98 99/109/100
f 68/79/70 116/111/7 11/66/9
f 92/112/102 97/113/103 95/104/95
f 95/104/95 104/114/104 96/110/101
f 88/107/98 86/105/96 98/115/105
f 96/110/101 100/116/106 86/105/96
f 86/105/96 100/116/106 105/117/107
f 103/118/108 102/106/97 91/89/80
f 86/105/96 105/117/107 98/115/105
f 102/106/97 114/119/109 97/113/103
f 99/109/100 98/115/105 112/120/110
f 105/117/107 111/121/111 98/115/105
f 98/115/105 109/122/112 112/120/110
f 97/113/103 119/123/113 104/114/104
f 100/116/106 104/114/104 110/124/114
f 89/108/99 108/125/115 106/126/116
f 98/115/105 111/121/111 109/122/112
f 107/127/117 112/120/110 108/125/115
f 105/117/107 115/128/118 111/121/111
f 112/120/110 113/129/119 108/125/115
f 111/121/111 115/128/118 118/130/120
f 103/118/108 114/119/109 102/106/97
f 111/121/111 118/130/120 109/122/112
f 101/131/121 116/111/7 68/79/70
f 119/123/113 120/132/122 110/124/114
f 118/130/120 117/133/123 109/122/112
f 110/124/114 120/132/122 115/128/118
f 108/125/115 113/129/119 121/134/124
f 115/128/118 120/132/122 126/135/125
f 106/126/116 121/134/124 127/136/126
f 115/128/118 126/135/125 124/137/127
f 121/134/124 113/129/119 130/138/128
f 118/130/120 123/139/129 117/133/123
f 124/137/127 128/140/130 118/130/120
f 113/129/119 123/139/129 130/138/128
f 124/137/127 126/135/125 128/140/130
f 103/118/108 79/75/66 134/20/20
f 125/141/131 132/142/132 126/135/125
f 126/135/125 132/142/132 128/140/130
f 122/143/133 136/144/134 125/141/131
f 128/140/130 129/145/135 123/139/129
f 137/146/136 136/144/134 122/143/133
f 129/145/135 138/147/137 130/138/128
f 131/148/138 135/149/139 127/136/126
f 128/140/130 132/142/132 140/150/140
f 131/148/138 142/151/141 135/149/139
f 136/144/134 141/152/142 125/141/131
f 133/153/143 140/150/140 138/147/137
f 138/147/137 146/154/144 142/151/141
f 139/155/145 144/156/146 140/150/140
f 140/150/140 144/156/146 151/157/147
f 151/157/147 145/158/148 138/147/137
f 138/147/137 145/158/148 146/154/144
f 143/159/149 147/160/150 141/152/142
f 142/151/141 146/154/144 135/149/139
f 149/161/151 156/162/152 143/159/149
f 149/161/151 148/163/153 153/164/154
f 151/157/147 154/165/155 145/158/148
f 156/162/152 150/166/156 143/159/149
f 143/159/149 150/166/156 147/160/150
f 151/157/147 155/167/157 154/165/155
f 135/149/139 158/168/158 161/1/1
f 155/167/157 159/169/159 160/170/160
f 155/167/157 160/170/160 154/165/155
f 134/20/20 162/22/22 148/163/153
f 156/162/152 153/164/154 4/10/10
f 156/162/152 4/10/10 150/166/156
f 159/169/159 163/171/161 160/170/160
f 150/166/156 7/4/4 164/172/162
f 157/173/163 160/170/160 5/174/164
f 150/166/156 4/10/10 7/4/4
f 164/172/162 7/4/4 8/6/6
f 163/171/161 8/6/6 2/14/14
f 160/170/160 9/17/17 5/174/164
f 152/8/8 1/3/3 21/12/12
f 163/171/161 2/14/14 3/15/15
f 7/4/4 14/11/11 15/5/5
f 6/2/2 18/19/19 10/31/31
f 1/3/3 6/2/2 10/31/31
f 6/2/2 5/174/164 18/19/19
f 4/10/10 162/22/22 13/26/26
f 5/174/164 9/17/17 18/19/19
f 3/15/15 2/14/14 12/16/16
f 4/10/10 13/26/26 14/11/11
f 15/5/5 14/11/11 24/23/23
f 1/3/3 10/31/31 21/12/12
f 162/22/22 20/21/21 13/26/26
f 134/20/20 79/175/66 20/21/21
f 12/16/16 16/13/13 22/25/25
f 12/16/16 22/25/25 17/18/18
f 21/12/12 10/31/31 25/32/32
f 14/11/11 23/27/27 24/23/23
f 11/9/9 21/12/12 34/41/41
f 17/18/18 22/25/25 28/35/35
f 17/18/18 28/35/35 26/28/28
f 21/12/12 25/32/32 34/41/41
f 18/19/19 26/28/28 30/30/30
f 24/23/23 37/33/33 29/37/37
f 24/23/23 29/37/37 19/24/24
f 37/33/33 23/27/27 27/29/29
f 31/34/34 29/37/37 38/45/45
f 28/35/35 31/34/34 35/46/46
f 31/34/34 38/45/45 35/46/46
f 28/35/35 35/46/46 32/36/36
f 37/33/33 27/29/29 33/42/42
f 29/37/37 37/33/33 41/43/43
f 36/38/38 32/36/36 40/47/47
f 29/37/37 41/43/43 38/45/45
f 33/42/42 46/51/51 41/43/43
f 35/46/46 39/48/48 40/47/47
f 48/40/40 36/38/38 47/49/49
f 39/48/48 42/44/44 45/176/53
f 39/177/48 45/55/53 49/57/50
f 40/178/47 49/57/50 53/67/59
f 40/178/47 53/67/59 47/61/49
f 42/53/44 41/179/43 44/54/52
f 34/64/41 48/60/40 51/65/58
f 46/58/51 33/180/42 43/74/39
f 43/74/39 20/181/21 79/75/66
f 46/58/51 43/74/39 56/69/61
f 45/55/53 44/54/52 50/63/57
f 44/54/52 54/59/55 50/63/57
f 49/57/50 55/56/54 52/72/64
f 49/57/50 52/72/64 53/67/59
f 46/58/51 57/70/62 54/59/55
f 56/69/61 43/74/39 69/76/67
f 53/67/59 52/72/64 62/68/60
f 55/56/54 50/63/57 61/71/63
f 52/72/64 61/71/63 67/81/72
f 64/77/68 52/72/64 67/81/72
f 57/70/62 56/69/61 60/83/74
f 57/70/62 60/83/74 59/73/65
f 70/91/82 51/65/58 65/78/69
f 62/68/60 64/77/68 58/62/56
f 61/71/63 66/84/75 72/85/76
f 67/81/72 61/71/63 72/85/76
f 65/78/69 58/62/56 75/86/77
f 63/80/71 69/76/67 81/92/83
f 59/73/65 60/83/74 73/88/79
f 65/78/69 75/86/77 70/91/82
f 75/86/77 64/77/68 71/87/78
f 74/82/73 72/85/76 76/97/88
f 60/83/74 77/90/81 73/88/79
f 72/85/76 66/84/75 76/97/88
f 70/91/82 75/86/77 78/100/91
f 73/88/79 80/93/84 66/84/75
f 66/84/75 82/94/85 76/97/88
f 74/82/73 76/97/88 83/95/86
f 71/87/78 74/82/73 83/95/86
f 73/88/79 77/90/81 80/93/84
f 75/86/77 71/87/78 84/101/92
f 77/90/81 81/92/83 92/112/102
f 71/87/78 85/96/87 84/101/92
f 82/94/85 80/93/84 93/102/93
f 92/112/102 81/92/83 102/106/97
f 82/94/85 88/107/98 87/98/89
f 95/104/95 77/90/81 92/112/102
f 94/103/94 87/98/89 88/107/98
f 86/105/96 93/102/93 96/110/101
f 78/100/91 84/101/92 89/108/99
f 85/96/87 94/103/94 99/109/100
f 92/112/102 102/106/97 97/113/103
f 79/75/66 103/118/108 91/89/80
f 99/109/100 88/107/98 98/115/105
f 84/101/92 99/109/100 107/127/117
f 96/110/101 104/114/104 100/116/106
f 89/108/99 84/101/92 107/127/117
f 104/114/104 95/104/95 97/113/103
f 99/109/100 112/120/110 107/127/117
f 68/79/70 90/99/90 101/131/121
f 89/108/99 107/127/117 108/125/115
f 90/99/90 89/108/99 106/126/116
f 101/131/121 90/99/90 106/126/116
f 97/113/103 114/119/109 119/123/113
f 105/117/107 100/116/106 115/128/118
f 104/114/104 119/123/113 110/124/114
f 115/128/118 100/116/106 110/124/114
f 112/120/110 109/122/112 117/133/123
f 112/120/110 117/133/123 113/129/119
f 106/126/116 127/136/126 101/131/121
f 108/125/115 121/134/124 106/126/116
f 115/128/118 124/137/127 118/130/120
f 119/123/113 114/119/109 137/146/136
f 120/132/122 119/123/113 122/143/133
f 121/134/124 131/148/138 127/136/126
f 119/123/113 137/146/136 122/143/133
f 113/129/119 117/133/123 123/139/129
f 120/132/122 122/143/133 125/141/131
f 114/119/109 103/118/108 137/146/136
f 123/139/129 118/130/120 128/140/130
f 126/135/125 120/132/122 125/141/131
f 123/139/129 129/145/135 130/138/128
f 121/134/124 130/138/128 131/148/138
f 127/136/126 152/8/8 101/131/121
f 101/131/121 152/8/8 116/111/7
f 129/145/135 128/140/130 133/153/143
f 137/146/136 103/118/108 148/163/153
f 132/142/132 139/155/145 140/150/140
f 127/136/126 135/149/139 152/8/8
f 128/140/130 140/150/140 133/153/143
f 136/144/134 137/146/136 149/161/151
f 130/138/128 138/147/137 142/151/141
f 132/142/132 125/141/131 141/152/142
f 131/148/138 130/138/128 142/151/141
f 129/145/135 133/153/143 138/147/137
f 132/142/132 141/152/142 139/155/145
f 103/118/108 134/20/20 148/163/153
f 136/144/134 143/159/149 141/152/142
f 136/144/134 149/161/151 143/159/149
f 149/161/151 137/146/136 148/163/153
f 138/147/137 140/150/140 151/157/147
f 139/155/145 141/152/142 147/160/150
f 139/155/145 147/160/150 144/156/146
f 144/156/146 155/167/157 151/157/147
f 135/149/139 146/154/144 158/168/158
f 144/156/146 147/160/150 155/167/157
f 149/161/151 153/164/154 156/162/152
f 146/154/144 145/158/148 158/168/158
f 155/167/157 147/160/150 159/169/159
f 147/160/150 150/166/156 164/172/162
f 159/169/159 147/160/150 164/172/162
f 152/8/8 135/149/139 161/1/1
f 145/158/148 154/165/155 157/173/163
f 145/158/148 157/173/163 158/168/158
f 157/173/163 154/165/155 160/170/160
f 158/168/158 157/173/163 6/2/2
f 158/168/158 6/2/2 161/1/1
f 153/164/154 148/163/153 162/22/22
f 159/169/159 164/172/162 163/171/161
f 152/8/8 161/1/1 1/3/3
f 6/2/2 157/173/163 5/174/164
f 163/171/161 164/172/162 8/6/6
f 160/170/160 163/171/161 3/15/15
f 153/164/154 162/22/22 4/10/10
f 160/170/160 3/15/15 9/17/17
usemtl moon
