# Blender v3.6.0 OBJ File: ''
# www.blender.org
mtllib frontwall.mtl
o Cube.001_Cube.020
v -7.286654 -3.701699 -2.072523
v -7.286654 6.298301 -2.072523
v -7.286654 -3.701699 -2.172523
v -7.286654 6.298301 -2.172523
v 8.713346 -3.701699 -2.072523
v 8.713346 6.298301 -2.072523
v 8.713346 -3.701699 -2.172523
v 8.713346 6.298301 -2.172523
v -3.298497 -3.701699 -2.172523
v -3.298497 6.298301 -2.172523
v -3.298497 -3.701699 -2.072523
v -3.298497 6.298301 -2.072523
v 4.711586 6.298301 -2.172523
v 4.711586 -3.701699 -2.072523
v 4.711586 -3.701699 -2.172523
v 4.711586 6.298301 -2.072523
v -7.286654 4.294879 -2.072523
v -7.286654 4.294879 -2.172523
v 8.713346 4.294879 -2.172523
v 8.713346 4.294879 -2.072523
v -3.298497 4.294879 -2.072523
v -3.298497 4.294879 -2.172523
v 4.711586 4.294879 -2.072523
v 4.711586 4.294879 -2.172523
v -7.286654 -1.701546 -2.172523
v 8.713346 -1.701546 -2.172523
v 8.713346 -1.701546 -2.072523
v -3.298497 -1.701546 -2.072523
v -3.298497 -1.701546 -2.172523
v 4.711586 -1.701546 -2.072523
v 4.711586 -1.701546 -2.172523
v -7.286654 -1.701546 -2.072523
vt 0.625000 0.000000
vt 0.574914 0.250000
vt 0.574914 0.000000
vt 0.625000 0.437473
vt 0.574914 0.500000
vt 0.574914 0.437473
vt 0.625000 0.500000
vt 0.574914 0.750000
vt 0.625000 0.937685
vt 0.574914 1.000000
vt 0.574914 0.937685
vt 0.375000 0.500000
vt 0.312473 0.750000
vt 0.312473 0.500000
vt 0.875000 0.500000
vt 0.812685 0.750000
vt 0.812685 0.500000
vt 0.687527 0.750000
vt 0.687527 0.500000
vt 0.187315 0.500000
vt 0.125000 0.750000
vt 0.125000 0.500000
vt 0.625000 0.812527
vt 0.574914 0.812528
vt 0.625000 0.250000
vt 0.574914 0.312315
vt 0.625000 0.750000
vt 0.187315 0.750000
vt 0.625000 0.312315
vt 0.425004 0.812528
vt 0.425004 0.750000
vt 0.425004 0.312315
vt 0.425004 0.250000
vt 0.425004 1.000000
vt 0.425004 0.937685
vt 0.425004 0.500000
vt 0.425004 0.437473
vt 0.425004 0.000000
vt 0.375000 0.250000
vt 0.375000 0.000000
vt 0.375000 0.437473
vt 0.375000 0.750000
vt 0.375000 1.000000
vt 0.375000 0.937685
vt 0.375000 0.812528
vt 0.375000 0.312315
vt 0.625000 1.000000
vt 0.875000 0.750000
vn -1.0000 0.0000 0.0000
vn 0.0000 0.0000 -1.0000
vn 1.0000 0.0000 0.0000
vn 0.0000 0.0000 1.0000
vn 0.0000 -1.0000 0.0000
vn 0.0000 1.0000 0.0000
s off
f 2/1/1 18/2/1 17/3/1
f 13/4/2 19/5/2 24/6/2
f 8/7/3 20/8/3 19/5/3
f 12/9/4 17/10/4 21/11/4
f 7/12/5 14/13/5 15/14/5
f 4/15/6 12/16/6 10/17/6
f 10/17/6 16/18/6 13/19/6
f 9/20/5 1/21/5 3/22/5
f 16/23/4 21/11/4 23/24/4
f 4/25/2 22/26/2 18/2/2
f 6/27/4 23/24/4 20/8/4
f 13/19/6 6/27/6 8/7/6
f 15/14/5 11/28/5 9/20/5
f 10/29/2 24/6/2 22/26/2
f 20/8/4 30/30/4 27/31/4
f 18/2/2 29/32/2 25/33/2
f 21/11/4 32/34/4 28/35/4
f 19/5/3 27/31/3 26/36/3
f 24/6/2 26/36/2 31/37/2
f 17/3/1 25/33/1 32/38/1
f 32/38/1 3/39/1 1/40/1
f 31/37/2 7/12/2 15/41/2
f 26/36/3 5/42/3 7/12/3
f 28/35/4 1/43/4 11/44/4
f 30/30/4 11/44/4 14/45/4
f 25/33/2 9/46/2 3/39/2
f 27/31/4 14/45/4 5/42/4
f 29/32/2 15/41/2 9/46/2
f 2/1/1 4/25/1 18/2/1
f 13/4/2 8/7/2 19/5/2
f 8/7/3 6/27/3 20/8/3
f 12/9/4 2/47/4 17/10/4
f 7/12/5 5/42/5 14/13/5
f 4/15/6 2/48/6 12/16/6
f 10/17/6 12/16/6 16/18/6
f 9/20/5 11/28/5 1/21/5
f 16/23/4 12/9/4 21/11/4
f 4/25/2 10/29/2 22/26/2
f 6/27/4 16/23/4 23/24/4
f 13/19/6 16/18/6 6/27/6
f 15/14/5 14/13/5 11/28/5
f 10/29/2 13/4/2 24/6/2
f 20/8/4 23/24/4 30/30/4
f 18/2/2 22/26/2 29/32/2
f 21/11/4 17/10/4 32/34/4
f 19/5/3 20/8/3 27/31/3
f 24/6/2 19/5/2 26/36/2
f 17/3/1 18/2/1 25/33/1
f 32/38/1 25/33/1 3/39/1
f 31/37/2 26/36/2 7/12/2
f 26/36/3 27/31/3 5/42/3
f 28/35/4 32/34/4 1/43/4
f 30/30/4 28/35/4 11/44/4
f 25/33/2 29/32/2 9/46/2
f 27/31/4 30/30/4 14/45/4
f 29/32/2 31/37/2 15/41/2
f 23/24/1 31/37/1 30/30/1
f 31/37/6 28/35/6 30/30/6
f 29/32/3 21/11/3 28/35/3
f 24/6/5 21/11/5 22/26/5
f 23/24/1 24/6/1 31/37/1
f 31/37/6 29/32/6 28/35/6
f 29/32/3 22/26/3 21/11/3
f 24/6/5 23/24/5 21/11/5
usemtl None
