# Blender v3.6.0 OBJ File: ''
# www.blender.org
mtllib janela9.mtl
o Cube_Cube.019
v -3.286654 -1.701699 -2.071156
v -3.286654 4.298301 -2.071156
v -3.286654 -1.701699 -2.271155
v -3.286654 4.298301 -2.271155
v 4.713346 -1.701699 -2.071156
v 4.713346 4.298301 -2.071156
v 4.713346 -1.701699 -2.271155
v 4.713346 4.298301 -2.271155
v -3.172566 -1.701699 -2.271155
v -3.172566 4.298301 -2.271155
v -3.172566 -1.701699 -2.071156
v -3.172566 4.298301 -2.071156
v -3.286654 4.177637 -2.071156
v -3.286654 4.177637 -2.271155
v 4.713346 4.177637 -2.271155
v 4.713346 4.177637 -2.071156
v -3.172566 4.177637 -2.071156
v -3.172566 4.177637 -2.271155
v 4.587287 4.298301 -2.271155
v 4.587287 -1.701699 -2.071156
v 4.587287 -1.701699 -2.271155
v 4.587287 4.298301 -2.071156
v 4.587287 4.177637 -2.071156
v 4.587287 4.177637 -2.271155
v -3.286654 -1.592608 -2.271155
v 4.713346 -1.592608 -2.271155
v 4.713346 -1.592608 -2.071156
v -3.172566 -1.592608 -2.071156
v -3.172566 -1.592608 -2.271155
v -3.286654 -1.592608 -2.071156
v 4.587287 -1.592608 -2.271155
v 4.587287 -1.592608 -2.071156
v 0.840822 -1.701699 -2.271155
v 0.840822 4.298301 -2.071156
v 0.840822 4.177637 -2.071156
v 0.840822 4.298301 -2.271155
v 0.840822 -1.701699 -2.071156
v 0.840822 4.177637 -2.271155
v 0.840822 -1.592608 -2.271155
v 0.840822 -1.592608 -2.071156
v 0.704445 -1.701699 -2.271155
v 0.704445 4.298301 -2.071156
v 0.704445 4.177637 -2.071156
v 0.704445 -1.592608 -2.071156
v 0.704445 4.298301 -2.271155
v 0.704445 -1.701699 -2.071156
v 0.704445 4.177637 -2.271155
v 0.704445 -1.592608 -2.271155
v 0.704445 4.298301 -2.271155
v 0.840822 4.298301 -2.271155
v 0.704445 -1.701699 -2.071156
v 0.840822 -1.701699 -2.071156
v 0.704445 4.177637 -2.271155
v 0.840822 4.177637 -2.271155
v 0.704445 -1.592608 -2.271155
v 0.840822 -1.592608 -2.271155
v 0.840822 -1.592608 -2.071156
v 0.840822 -1.701699 -2.271155
v 0.840822 4.177637 -2.071156
v 0.840822 4.298301 -2.071156
v 0.704445 -1.701699 -2.271155
v 0.704445 4.298301 -2.071156
v 0.704445 4.177637 -2.071156
v 0.704445 -1.592608 -2.071156
v -3.286654 -1.592608 -2.271155
v -3.286654 -1.701699 -2.271155
v -3.172566 -1.701699 -2.271155
v 4.587287 4.298301 -2.271155
v 4.713346 4.298301 -2.271155
v 0.704445 -1.701699 -2.271155
v -3.286654 4.298301 -2.271155
v -3.172566 4.298301 -2.271155
v -3.172566 -1.592608 -2.271155
v -3.286654 4.177637 -2.271155
v 4.713346 4.177637 -2.271155
v -3.172566 4.177637 -2.271155
v 4.587287 4.177637 -2.271155
v 0.840822 4.298301 -2.271155
v 0.840822 4.177637 -2.271155
v 4.587287 -1.592608 -2.271155
v 4.587287 -1.701699 -2.271155
v 4.713346 -1.592608 -2.271155
v 0.840822 -1.592608 -2.271155
v 0.840822 -1.701699 -2.271155
v 0.704445 4.298301 -2.271155
v 0.704445 4.177637 -2.271155
v 0.704445 -1.592608 -2.271155
v 0.704445 4.298301 -2.271155
v 0.840822 4.298301 -2.271155
v 0.704445 4.177637 -2.271155
v 0.840822 4.177637 -2.271155
v 0.704445 -1.592608 -2.271155
v 0.840822 -1.592608 -2.271155
v 0.840822 -1.701699 -2.271155
v 0.704445 -1.701699 -2.271155
v 4.713346 -1.592608 -2.291155
v 4.713346 -1.701699 -2.291155
v 4.587287 -1.701699 -2.291155
v 4.587287 -1.592608 -2.291155
v -3.286654 -1.592608 -2.291155
v -3.286654 -1.701699 -2.291155
v -3.172566 -1.701699 -2.291155
v 4.587287 4.298301 -2.291155
v 4.713346 4.298301 -2.291155
v 0.704445 -1.701699 -2.291155
v -3.286654 4.298301 -2.291155
v -3.172566 4.298301 -2.291155
v -3.172566 -1.592608 -2.291155
v -3.286654 4.177637 -2.291155
v 4.713346 4.177637 -2.291155
v -3.172566 4.177637 -2.291155
v 4.587287 4.177637 -2.291155
v 0.840822 4.298301 -2.291155
v 0.840822 4.177637 -2.291155
v 4.587287 -1.592608 -2.291155
v 4.587287 -1.701699 -2.291155
v 4.713346 -1.592608 -2.291155
v 0.840822 -1.592608 -2.291155
v 0.840822 -1.701699 -2.291155
v 0.704445 4.298301 -2.291155
v 0.704445 4.177637 -2.291155
v 0.704445 -1.592608 -2.291155
v 0.704445 4.298301 -2.291155
v 0.840822 4.298301 -2.291155
v 0.704445 4.177637 -2.291155
v 0.840822 4.177637 -2.291155
v 0.704445 -1.592608 -2.291155
v 0.840822 -1.592608 -2.291155
v 0.840822 -1.701699 -2.291155
v 0.704445 -1.701699 -2.291155
v 4.587287 4.177637 -2.071156
v 0.840822 4.177637 -2.071156
v 4.587287 4.177637 -2.271155
v 0.840822 4.177637 -2.271155
vt 0.625000 0.000000
vt 0.619972 0.250000
vt 0.619972 0.000000
vt 0.625000 0.250000
vt 0.619972 0.250000
vt 0.625000 0.500000
vt 0.619972 0.750000
vt 0.619972 0.500000
vt 0.625000 0.996435
vt 0.619972 1.000000
vt 0.619972 0.996435
vt 0.375000 0.500000
vt 0.371061 0.750000
vt 0.371061 0.500000
vt 0.875000 0.500000
vt 0.871435 0.750000
vt 0.871435 0.500000
vt 0.750278 0.750000
vt 0.750278 0.500000
vt 0.128565 0.500000
vt 0.125000 0.750000
vt 0.125000 0.500000
vt 0.625000 0.875278
vt 0.619972 0.875278
vt 0.379545 0.374722
vt 0.375000 0.374722
vt 0.379545 0.374722
vt 0.253984 0.500000
vt 0.371061 0.500000
vt 0.619972 0.374722
vt 0.379546 0.875278
vt 0.379545 0.374722
vt 0.379545 1.000000
vt 0.379546 0.996435
vt 0.379545 0.750000
vt 0.379545 0.500000
vt 0.625000 0.374722
vt 0.619972 0.374722
vt 0.625000 0.374722
vt 0.379546 0.250000
vt 0.379545 0.000000
vt 0.619972 0.753939
vt 0.619972 0.871016
vt 0.619972 0.753939
vt 0.379545 0.753939
vt 0.625000 0.750000
vt 0.628939 0.500000
vt 0.253984 0.750000
vt 0.253984 0.500000
vt 0.746016 0.500000
vt 0.628939 0.500000
vt 0.746016 0.500000
vt 0.375000 0.753939
vt 0.375000 0.750000
vt 0.625000 0.500000
vt 0.375000 0.250000
vt 0.375000 0.000000
vt 0.619972 0.374722
vt 0.619972 0.378984
vt 0.619972 0.378984
vt 0.375000 1.000000
vt 0.375000 0.996435
vt 0.375000 0.875278
vt 0.379545 0.500000
vt 0.619972 0.500000
vt 0.375000 0.871016
vt 0.379546 0.871016
vt 0.375000 0.871016
vt 0.619972 0.875278
vt 0.625000 0.875278
vt 0.746016 0.750000
vt 0.746016 0.500000
vt 0.746016 0.750000
vt 0.619972 0.378984
vt 0.619972 0.496061
vt 0.619972 0.378984
vt 0.625000 0.753939
vt 0.619972 0.871016
vt 0.628939 0.750000
vt 0.619972 0.374722
vt 0.249722 0.500000
vt 0.128565 0.750000
vt 0.625000 0.378984
vt 0.625000 0.378984
vt 0.125000 0.500000
vt 0.128565 0.500000
vt 0.625000 0.871016
vt 0.619972 0.871016
vt 0.379546 0.875278
vt 0.375000 0.875278
vt 0.379546 0.871016
vt 0.375000 0.374722
vt 0.375000 0.374722
vt 0.379546 0.250000
vt 0.379545 0.374722
vt 0.375000 0.374722
vt 0.253984 0.500000
vt 0.249722 0.750000
vt 0.249722 0.500000
vt 0.379545 0.378984
vt 0.750278 0.500000
vt 0.750278 0.750000
vt 0.379545 0.378984
vt 0.375000 0.378984
vt 0.625000 0.378984
vt 0.619972 0.378984
vt 0.249722 0.750000
vt 0.253984 0.750000
vt 0.619972 0.374722
vt 0.625000 0.374722
vt 0.619972 0.378984
vt 0.871435 0.500000
vt 0.875000 0.500000
vt 0.875000 0.500000
vt 0.375000 0.500000
vt 0.379545 0.253565
vt 0.619972 0.253565
vt 0.619972 0.253565
vt 0.746016 0.500000
vt 0.750278 0.500000
vt 0.750278 0.500000
vt 0.249722 0.500000
vt 0.249722 0.500000
vt 0.379545 0.500000
vt 0.619972 0.500000
vt 0.379545 0.374722
vt 0.628939 0.500000
vt 0.379546 0.250000
vt 0.625000 0.374722
vt 0.619972 0.253565
vt 0.379545 0.496061
vt 0.619972 0.496061
vt 0.379545 0.496061
vt 0.249722 0.500000
vt 0.253984 0.500000
vt 0.619972 0.496061
vt 0.375000 0.496061
vt 0.379545 0.378984
vt 0.750278 0.500000
vt 0.379545 0.378984
vt 0.375000 0.378984
vt 0.375000 0.378984
vt 0.379545 0.253565
vt 0.625000 0.374722
vt 0.625000 0.378984
vt 0.375000 0.250000
vt 0.375000 0.378984
vt 0.379545 0.496061
vt 0.375000 0.496061
vt 0.625000 0.496061
vt 0.619972 0.496061
vt 0.625000 0.250000
vt 0.619972 0.250000
vt 0.379545 0.253565
vt 0.379545 0.500000
vt 0.379545 0.496061
vt 0.625000 0.378984
vt 0.619972 0.378984
vt 0.379545 0.378984
vt 0.375000 0.496061
vt 0.375000 0.378984
vt 0.375000 0.253565
vt 0.375000 0.250000
vt 0.625000 0.253565
vt 0.375000 0.374722
vt 0.379545 0.374722
vt 0.375000 0.378984
vt 0.375000 0.374722
vt 0.625000 0.374722
vt 0.619972 0.374722
vt 0.379545 0.378984
vt 0.625000 0.500000
vt 0.625000 0.378984
vt 0.375000 0.496061
vt 0.253984 0.500000
vt 0.371061 0.500000
vt 0.746016 0.500000
vt 0.871435 0.500000
vt 0.128565 0.500000
vt 0.625000 0.250000
vt 0.625000 1.000000
vt 0.875000 0.750000
vt 0.625000 0.871016
vt 0.371061 0.500000
vt 0.746016 0.500000
vt 0.249722 0.500000
vt 0.253984 0.500000
vt 0.750278 0.500000
vt 0.125000 0.500000
vn -1.0000 0.0000 0.0000
vn 0.0000 0.0000 1.0000
vn 1.0000 0.0000 0.0000
vn 0.0000 -1.0000 0.0000
vn 0.0000 1.0000 0.0000
vn 0.0000 0.0000 -1.0000
s off
f 2/1/1 14/2/1 13/3/1
f 14/2/2 71/4/2 74/5/2
f 8/6/3 16/7/3 15/8/3
f 12/9/2 13/10/2 17/11/2
f 7/12/4 20/13/4 21/14/4
f 4/15/5 12/16/5 10/17/5
f 10/17/5 42/18/5 45/19/5
f 9/20/4 1/21/4 3/22/4
f 42/23/2 17/11/2 43/24/2
f 48/25/2 70/26/2 87/27/2
f 21/14/2 84/28/2 81/29/2
f 53/30/3 64/31/3 55/32/3
f 17/11/2 30/33/2 28/34/2
f 15/8/3 27/35/3 26/36/3
f 45/37/2 86/38/2 85/39/2
f 13/3/1 25/40/1 30/41/1
f 23/42/2 132/43/2 131/44/2
f 16/7/2 32/45/2 27/35/2
f 6/46/2 23/42/2 16/7/2
f 19/47/5 6/46/5 8/6/5
f 21/14/4 37/48/4 33/49/4
f 36/50/2 68/51/2 78/52/2
f 27/35/2 20/53/2 5/54/2
f 19/47/2 69/55/2 68/51/2
f 30/41/1 3/56/1 1/57/1
f 90/58/4 126/59/4 91/60/4
f 26/36/3 5/54/3 7/12/3
f 28/34/2 1/61/2 11/62/2
f 46/63/2 28/34/2 11/62/2
f 15/8/2 82/64/2 75/65/2
f 32/45/2 37/66/2 20/53/2
f 37/66/2 57/67/2 52/68/2
f 42/23/2 63/69/2 62/70/2
f 34/71/2 50/72/2 60/73/2
f 43/24/2 64/31/2 63/69/2
f 79/74/2 133/75/2 134/76/2
f 22/77/2 35/78/2 23/42/2
f 36/50/5 22/79/5 19/47/5
f 121/80/5 17/11/5 43/24/5
f 41/81/4 11/82/4 9/20/4
f 50/83/2 91/60/2 89/84/2
f 9/20/2 66/85/2 67/86/2
f 35/78/2 60/87/2 59/88/2
f 44/89/2 51/90/2 64/31/2
f 40/91/2 59/88/2 57/67/2
f 41/92/2 55/32/2 61/93/2
f 25/40/2 74/5/2 65/94/2
f 61/93/2 92/95/2 95/96/2
f 58/97/4 51/98/4 61/99/4
f 53/30/6 56/100/6 55/32/6
f 57/67/2 51/90/2 52/68/2
f 59/88/2 64/31/2 57/67/2
f 60/87/2 63/69/2 59/88/2
f 49/101/5 60/73/5 50/72/5
f 45/19/2 62/102/2 49/101/2
f 39/103/2 58/104/2 56/100/2
f 48/25/2 53/30/2 55/32/2
f 36/105/2 54/106/2 50/83/2
f 46/107/2 61/99/2 51/98/2
f 33/49/2 52/108/2 58/97/2
f 47/109/2 49/110/2 53/30/2
f 38/111/2 56/100/2 54/106/2
f 72/112/5 106/113/5 71/114/5
f 21/14/4 97/115/4 7/12/4
f 73/116/3 111/117/3 76/118/3
f 89/119/5 123/120/5 88/121/5
f 67/86/4 105/122/4 70/123/4
f 7/12/3 96/124/3 26/36/3
f 82/64/3 110/125/3 75/65/3
f 70/26/3 122/126/3 87/27/3
f 69/55/5 103/127/5 68/51/5
f 74/5/1 100/128/1 65/94/1
f 86/38/3 120/129/3 85/39/3
f 18/130/2 73/116/2 76/118/2
f 8/6/2 75/65/2 69/55/2
f 31/131/2 77/132/2 80/133/2
f 58/97/2 95/134/2 94/135/2
f 24/136/2 79/74/2 77/132/2
f 31/131/2 81/137/2 80/133/2
f 49/101/2 89/119/2 88/121/2
f 41/81/2 67/86/2 70/123/2
f 39/103/2 80/133/2 83/138/2
f 10/17/2 85/139/2 72/112/2
f 4/15/2 72/112/2 71/114/2
f 54/106/2 90/58/2 91/60/2
f 55/32/2 93/140/2 92/95/2
f 26/36/2 80/133/2 82/64/2
f 47/109/2 76/118/2 86/38/2
f 33/141/2 83/138/2 84/142/2
f 29/143/2 87/27/2 73/116/2
f 53/30/2 88/144/2 90/58/2
f 38/111/2 78/145/2 79/74/2
f 3/56/2 65/94/2 66/146/2
f 56/100/2 94/147/2 93/140/2
f 99/148/6 97/115/6 98/149/6
f 103/150/6 110/125/6 112/151/6
f 106/152/6 111/117/6 109/153/6
f 109/153/6 108/154/6 100/128/6
f 112/151/6 117/155/6 115/156/6
f 113/157/6 112/151/6 114/158/6
f 118/159/6 116/160/6 119/161/6
f 100/128/6 102/162/6 101/163/6
f 107/164/6 121/80/6 111/117/6
f 108/154/6 105/165/6 102/162/6
f 127/166/6 129/167/6 130/168/6
f 123/169/6 126/59/6 125/170/6
f 77/132/1 115/156/1 80/133/1
f 93/140/5 127/166/5 92/95/5
f 80/133/5 118/159/5 83/138/5
f 71/4/1 109/153/1 74/5/1
f 94/147/3 128/171/3 93/140/3
f 80/133/4 117/155/4 82/64/4
f 75/65/3 104/172/3 69/55/3
f 91/60/3 124/173/3 89/84/3
f 31/131/1 98/149/1 21/174/1
f 95/134/4 129/175/4 94/135/4
f 84/28/4 116/176/4 81/29/4
f 88/144/1 125/170/1 90/58/1
f 83/138/1 119/161/1 84/142/1
f 92/95/1 130/168/1 95/96/1
f 78/145/1 114/158/1 79/74/1
f 68/51/5 113/177/5 78/52/5
f 26/36/5 99/148/5 31/131/5
f 85/139/5 107/178/5 72/112/5
f 79/74/4 112/151/4 77/132/4
f 76/118/4 121/80/4 86/38/4
f 81/137/3 115/156/3 80/133/3
f 65/94/1 101/163/1 66/146/1
f 87/27/5 108/154/5 73/116/5
f 66/85/4 102/179/4 67/86/4
f 132/43/4 133/75/4 131/44/4
f 23/42/1 80/133/1 32/45/1
f 80/133/5 40/91/5 32/45/5
f 54/106/3 57/67/3 56/100/3
f 28/34/3 76/118/3 17/11/3
f 87/27/5 28/34/5 44/89/5
f 2/1/1 4/180/1 14/2/1
f 14/2/2 4/180/2 71/4/2
f 8/6/3 6/46/3 16/7/3
f 12/9/2 2/181/2 13/10/2
f 7/12/4 5/54/4 20/13/4
f 4/15/5 2/182/5 12/16/5
f 10/17/5 12/16/5 42/18/5
f 9/20/4 11/82/4 1/21/4
f 42/23/2 12/9/2 17/11/2
f 48/25/2 41/92/2 70/26/2
f 21/14/2 33/49/2 84/28/2
f 53/30/3 63/69/3 64/31/3
f 17/11/2 13/10/2 30/33/2
f 15/8/3 16/7/3 27/35/3
f 45/37/2 47/109/2 86/38/2
f 13/3/1 14/2/1 25/40/1
f 23/42/2 35/78/2 132/43/2
f 16/7/2 23/42/2 32/45/2
f 6/46/2 22/77/2 23/42/2
f 19/47/5 22/79/5 6/46/5
f 21/14/4 20/13/4 37/48/4
f 36/50/2 19/47/2 68/51/2
f 27/35/2 32/45/2 20/53/2
f 19/47/2 8/6/2 69/55/2
f 30/41/1 25/40/1 3/56/1
f 90/58/4 125/170/4 126/59/4
f 26/36/3 27/35/3 5/54/3
f 28/34/2 30/33/2 1/61/2
f 46/63/2 44/89/2 28/34/2
f 15/8/2 26/36/2 82/64/2
f 32/45/2 40/91/2 37/66/2
f 37/66/2 40/91/2 57/67/2
f 42/23/2 43/24/2 63/69/2
f 34/71/2 36/50/2 50/72/2
f 43/24/2 44/89/2 64/31/2
f 79/74/2 77/132/2 133/75/2
f 22/77/2 34/183/2 35/78/2
f 36/50/5 34/71/5 22/79/5
f 121/80/5 111/117/5 17/11/5
f 41/81/4 46/107/4 11/82/4
f 50/83/2 54/106/2 91/60/2
f 9/20/2 3/22/2 66/85/2
f 35/78/2 34/183/2 60/87/2
f 44/89/2 46/63/2 51/90/2
f 40/91/2 35/78/2 59/88/2
f 41/92/2 48/25/2 55/32/2
f 25/40/2 14/2/2 74/5/2
f 61/93/2 55/32/2 92/95/2
f 58/97/4 52/108/4 51/98/4
f 53/30/6 54/106/6 56/100/6
f 57/67/2 64/31/2 51/90/2
f 59/88/2 63/69/2 64/31/2
f 60/87/2 62/70/2 63/69/2
f 49/101/5 62/102/5 60/73/5
f 45/19/2 42/18/2 62/102/2
f 39/103/2 33/141/2 58/104/2
f 48/25/2 47/109/2 53/30/2
f 36/105/2 38/111/2 54/106/2
f 46/107/2 41/81/2 61/99/2
f 33/49/2 37/48/2 52/108/2
f 47/109/2 45/37/2 49/110/2
f 38/111/2 39/103/2 56/100/2
f 72/112/5 107/178/5 106/113/5
f 21/14/4 98/184/4 97/115/4
f 73/116/3 108/154/3 111/117/3
f 89/119/5 124/185/5 123/120/5
f 67/86/4 102/179/4 105/122/4
f 7/12/3 97/115/3 96/124/3
f 82/64/3 117/155/3 110/125/3
f 70/26/3 105/165/3 122/126/3
f 69/55/5 104/172/5 103/127/5
f 74/5/1 109/153/1 100/128/1
f 86/38/3 121/80/3 120/129/3
f 18/130/2 29/143/2 73/116/2
f 8/6/2 15/8/2 75/65/2
f 31/131/2 24/136/2 77/132/2
f 58/97/2 61/99/2 95/134/2
f 24/136/2 38/111/2 79/74/2
f 31/131/2 21/174/2 81/137/2
f 49/101/2 50/72/2 89/119/2
f 41/81/2 9/20/2 67/86/2
f 39/103/2 31/131/2 80/133/2
f 10/17/2 45/19/2 85/139/2
f 4/15/2 10/17/2 72/112/2
f 54/106/2 53/30/2 90/58/2
f 55/32/2 56/100/2 93/140/2
f 26/36/2 31/131/2 80/133/2
f 47/109/2 18/130/2 76/118/2
f 33/141/2 39/103/2 83/138/2
f 29/143/2 48/25/2 87/27/2
f 53/30/2 49/110/2 88/144/2
f 38/111/2 36/105/2 78/145/2
f 3/56/2 25/40/2 65/94/2
f 56/100/2 58/104/2 94/147/2
f 99/148/6 96/124/6 97/115/6
f 103/150/6 104/172/6 110/125/6
f 106/152/6 107/164/6 111/117/6
f 109/153/6 111/117/6 108/154/6
f 112/151/6 110/125/6 117/155/6
f 113/157/6 103/150/6 112/151/6
f 118/159/6 115/156/6 116/160/6
f 100/128/6 108/154/6 102/162/6
f 107/164/6 120/129/6 121/80/6
f 108/154/6 122/126/6 105/165/6
f 127/166/6 128/171/6 129/167/6
f 123/169/6 124/173/6 126/59/6
f 77/132/1 112/151/1 115/156/1
f 93/140/5 128/171/5 127/166/5
f 80/133/5 115/156/5 118/159/5
f 71/4/1 106/152/1 109/153/1
f 94/147/3 129/167/3 128/171/3
f 80/133/4 115/156/4 117/155/4
f 75/65/3 110/125/3 104/172/3
f 91/60/3 126/59/3 124/173/3
f 31/131/1 99/148/1 98/149/1
f 95/134/4 130/186/4 129/175/4
f 84/28/4 119/187/4 116/176/4
f 88/144/1 123/169/1 125/170/1
f 83/138/1 118/159/1 119/161/1
f 92/95/1 127/166/1 130/168/1
f 78/145/1 113/157/1 114/158/1
f 68/51/5 103/127/5 113/177/5
f 26/36/5 96/124/5 99/148/5
f 85/139/5 120/188/5 107/178/5
f 79/74/4 114/158/4 112/151/4
f 76/118/4 111/117/4 121/80/4
f 81/137/3 116/160/3 115/156/3
f 65/94/1 100/128/1 101/163/1
f 87/27/5 122/126/5 108/154/5
f 66/85/4 101/189/4 102/179/4
f 132/43/4 134/76/4 133/75/4
f 23/42/1 77/132/1 80/133/1
f 80/133/5 83/138/5 40/91/5
f 54/106/3 59/88/3 57/67/3
f 28/34/3 73/116/3 76/118/3
f 87/27/5 73/116/5 28/34/5
usemtl None
